<mxfile host="app.diagrams.net" modified="2022-11-07T23:29:46.217Z" agent="5.0 (Macintosh; Intel Mac OS X 10_15_7) AppleWebKit/605.1.15 (KHTML, like Gecko) Version/16.0 Safari/605.1.15" etag="1b1vrUZs2LwO1ThlOJmL" version="20.5.3" type="github">
  <diagram id="C5RBs43oDa-KdzZeNtuy" name="Page-1">
    <mxGraphModel dx="1803" dy="665" grid="1" gridSize="10" guides="1" tooltips="1" connect="1" arrows="1" fold="1" page="1" pageScale="1" pageWidth="827" pageHeight="1169" math="0" shadow="0">
      <root>
        <mxCell id="WIyWlLk6GJQsqaUBKTNV-0" />
        <mxCell id="WIyWlLk6GJQsqaUBKTNV-1" parent="WIyWlLk6GJQsqaUBKTNV-0" />
        <mxCell id="T1c-80b6OHfldNlM--Q7-0" value="Introduction&amp;nbsp;" style="swimlane;whiteSpace=wrap;html=1;" vertex="1" parent="WIyWlLk6GJQsqaUBKTNV-1">
          <mxGeometry x="50" y="10" width="200" height="120" as="geometry" />
        </mxCell>
        <mxCell id="T1c-80b6OHfldNlM--Q7-1" value="Title scoll&lt;br&gt;&lt;br&gt;Get user name&amp;nbsp;" style="text;html=1;align=center;verticalAlign=middle;resizable=0;points=[];autosize=1;strokeColor=none;fillColor=none;" vertex="1" parent="WIyWlLk6GJQsqaUBKTNV-1">
          <mxGeometry x="75" y="30" width="110" height="60" as="geometry" />
        </mxCell>
        <mxCell id="T1c-80b6OHfldNlM--Q7-2" value="Make new game class file&amp;nbsp;" style="text;html=1;align=center;verticalAlign=middle;resizable=0;points=[];autosize=1;strokeColor=none;fillColor=none;" vertex="1" parent="WIyWlLk6GJQsqaUBKTNV-1">
          <mxGeometry x="40" y="85" width="160" height="30" as="geometry" />
        </mxCell>
        <mxCell id="T1c-80b6OHfldNlM--Q7-4" value="" style="endArrow=classic;startArrow=classic;html=1;rounded=0;entryX=0.5;entryY=1;entryDx=0;entryDy=0;" edge="1" parent="WIyWlLk6GJQsqaUBKTNV-1" target="T1c-80b6OHfldNlM--Q7-0">
          <mxGeometry width="50" height="50" relative="1" as="geometry">
            <mxPoint x="150" y="240" as="sourcePoint" />
            <mxPoint x="190" y="150" as="targetPoint" />
          </mxGeometry>
        </mxCell>
        <mxCell id="T1c-80b6OHfldNlM--Q7-6" value="Switch Statement&amp;nbsp;&lt;br&gt;Class Selection And&lt;br&gt;Stats Definition&amp;nbsp;" style="rounded=1;whiteSpace=wrap;html=1;" vertex="1" parent="WIyWlLk6GJQsqaUBKTNV-1">
          <mxGeometry x="80" y="240" width="120" height="60" as="geometry" />
        </mxCell>
        <mxCell id="T1c-80b6OHfldNlM--Q7-9" value="Second Switch&amp;nbsp;&lt;br&gt;For location Selection&lt;br&gt;Its starting money" style="rounded=1;whiteSpace=wrap;html=1;" vertex="1" parent="WIyWlLk6GJQsqaUBKTNV-1">
          <mxGeometry x="80" y="300" width="120" height="60" as="geometry" />
        </mxCell>
        <mxCell id="T1c-80b6OHfldNlM--Q7-10" value="" style="endArrow=classic;startArrow=classic;html=1;rounded=0;entryX=0.5;entryY=1;entryDx=0;entryDy=0;" edge="1" parent="WIyWlLk6GJQsqaUBKTNV-1" target="T1c-80b6OHfldNlM--Q7-9">
          <mxGeometry width="50" height="50" relative="1" as="geometry">
            <mxPoint x="140" y="430" as="sourcePoint" />
            <mxPoint x="165" y="370" as="targetPoint" />
          </mxGeometry>
        </mxCell>
        <mxCell id="T1c-80b6OHfldNlM--Q7-12" value="Tutorial Section&amp;nbsp;" style="shape=process;whiteSpace=wrap;html=1;backgroundOutline=1;" vertex="1" parent="WIyWlLk6GJQsqaUBKTNV-1">
          <mxGeometry x="80" y="490" width="120" height="60" as="geometry" />
        </mxCell>
        <mxCell id="T1c-80b6OHfldNlM--Q7-13" value="Want Tutorial&amp;nbsp;&lt;br&gt;Conditional" style="shape=parallelogram;perimeter=parallelogramPerimeter;whiteSpace=wrap;html=1;fixedSize=1;" vertex="1" parent="WIyWlLk6GJQsqaUBKTNV-1">
          <mxGeometry x="80" y="430" width="120" height="60" as="geometry" />
        </mxCell>
        <mxCell id="T1c-80b6OHfldNlM--Q7-14" value="" style="endArrow=classic;startArrow=classic;html=1;rounded=0;exitX=0.5;exitY=0;exitDx=0;exitDy=0;" edge="1" parent="WIyWlLk6GJQsqaUBKTNV-1" source="T1c-80b6OHfldNlM--Q7-17">
          <mxGeometry width="50" height="50" relative="1" as="geometry">
            <mxPoint x="80" y="600" as="sourcePoint" />
            <mxPoint x="110" y="550" as="targetPoint" />
          </mxGeometry>
        </mxCell>
        <mxCell id="T1c-80b6OHfldNlM--Q7-15" value="" style="endArrow=classic;startArrow=classic;html=1;rounded=0;exitX=0.5;exitY=0;exitDx=0;exitDy=0;" edge="1" parent="WIyWlLk6GJQsqaUBKTNV-1" source="T1c-80b6OHfldNlM--Q7-18">
          <mxGeometry width="50" height="50" relative="1" as="geometry">
            <mxPoint x="139.5" y="600" as="sourcePoint" />
            <mxPoint x="139.5" y="550" as="targetPoint" />
          </mxGeometry>
        </mxCell>
        <mxCell id="T1c-80b6OHfldNlM--Q7-16" value="" style="endArrow=classic;startArrow=classic;html=1;rounded=0;exitX=0.5;exitY=0;exitDx=0;exitDy=0;" edge="1" parent="WIyWlLk6GJQsqaUBKTNV-1" source="T1c-80b6OHfldNlM--Q7-19">
          <mxGeometry width="50" height="50" relative="1" as="geometry">
            <mxPoint x="200" y="600" as="sourcePoint" />
            <mxPoint x="180" y="550" as="targetPoint" />
          </mxGeometry>
        </mxCell>
        <mxCell id="T1c-80b6OHfldNlM--Q7-17" value="Battle System" style="ellipse;whiteSpace=wrap;html=1;" vertex="1" parent="WIyWlLk6GJQsqaUBKTNV-1">
          <mxGeometry x="-30" y="600" width="120" height="80" as="geometry" />
        </mxCell>
        <mxCell id="T1c-80b6OHfldNlM--Q7-18" value="Shop Tutoriall" style="ellipse;whiteSpace=wrap;html=1;" vertex="1" parent="WIyWlLk6GJQsqaUBKTNV-1">
          <mxGeometry x="90" y="620" width="80" height="50" as="geometry" />
        </mxCell>
        <mxCell id="T1c-80b6OHfldNlM--Q7-19" value="Daily mechanic" style="ellipse;whiteSpace=wrap;html=1;" vertex="1" parent="WIyWlLk6GJQsqaUBKTNV-1">
          <mxGeometry x="180" y="600" width="70" height="40" as="geometry" />
        </mxCell>
        <mxCell id="T1c-80b6OHfldNlM--Q7-20" value="" style="shape=flexArrow;endArrow=classic;html=1;rounded=0;" edge="1" parent="WIyWlLk6GJQsqaUBKTNV-1" source="T1c-80b6OHfldNlM--Q7-18">
          <mxGeometry width="50" height="50" relative="1" as="geometry">
            <mxPoint x="125" y="740" as="sourcePoint" />
            <mxPoint x="140" y="790" as="targetPoint" />
            <Array as="points">
              <mxPoint x="155" y="710" />
            </Array>
          </mxGeometry>
        </mxCell>
        <mxCell id="T1c-80b6OHfldNlM--Q7-21" value="Week Mechanics&amp;nbsp;&lt;br&gt;(Daily Chores)&lt;br&gt;Stat management&lt;br&gt;Battling System&amp;nbsp;" style="rhombus;whiteSpace=wrap;html=1;" vertex="1" parent="WIyWlLk6GJQsqaUBKTNV-1">
          <mxGeometry x="50" y="760" width="130" height="140" as="geometry" />
        </mxCell>
        <mxCell id="T1c-80b6OHfldNlM--Q7-23" value="" style="edgeStyle=orthogonalEdgeStyle;rounded=0;orthogonalLoop=1;jettySize=auto;html=1;" edge="1" parent="WIyWlLk6GJQsqaUBKTNV-1" source="T1c-80b6OHfldNlM--Q7-22" target="T1c-80b6OHfldNlM--Q7-19">
          <mxGeometry relative="1" as="geometry" />
        </mxCell>
        <mxCell id="T1c-80b6OHfldNlM--Q7-22" value="Instrutor&lt;br&gt;" style="shape=umlActor;verticalLabelPosition=bottom;verticalAlign=top;html=1;outlineConnect=0;" vertex="1" parent="WIyWlLk6GJQsqaUBKTNV-1">
          <mxGeometry x="220" y="500" width="30" height="60" as="geometry" />
        </mxCell>
        <mxCell id="T1c-80b6OHfldNlM--Q7-24" value="" style="shape=flexArrow;endArrow=classic;html=1;rounded=0;exitX=1;exitY=0.5;exitDx=0;exitDy=0;" edge="1" parent="WIyWlLk6GJQsqaUBKTNV-1" source="T1c-80b6OHfldNlM--Q7-21">
          <mxGeometry width="50" height="50" relative="1" as="geometry">
            <mxPoint x="200" y="880" as="sourcePoint" />
            <mxPoint x="420" y="160" as="targetPoint" />
            <Array as="points">
              <mxPoint x="320" y="830" />
              <mxPoint x="320" y="100" />
              <mxPoint x="420" y="100" />
            </Array>
          </mxGeometry>
        </mxCell>
        <mxCell id="T1c-80b6OHfldNlM--Q7-26" value="" style="endArrow=classic;html=1;rounded=0;exitX=1;exitY=1;exitDx=0;exitDy=0;" edge="1" parent="WIyWlLk6GJQsqaUBKTNV-1" source="T1c-80b6OHfldNlM--Q7-21">
          <mxGeometry width="50" height="50" relative="1" as="geometry">
            <mxPoint x="105" y="930" as="sourcePoint" />
            <mxPoint x="190" y="920" as="targetPoint" />
          </mxGeometry>
        </mxCell>
        <mxCell id="T1c-80b6OHfldNlM--Q7-27" value="" style="endArrow=classic;html=1;rounded=0;exitX=0;exitY=1;exitDx=0;exitDy=0;" edge="1" parent="WIyWlLk6GJQsqaUBKTNV-1" source="T1c-80b6OHfldNlM--Q7-21">
          <mxGeometry width="50" height="50" relative="1" as="geometry">
            <mxPoint x="25" y="950" as="sourcePoint" />
            <mxPoint x="40" y="910" as="targetPoint" />
          </mxGeometry>
        </mxCell>
        <mxCell id="T1c-80b6OHfldNlM--Q7-29" value="Shop" style="ellipse;whiteSpace=wrap;html=1;" vertex="1" parent="WIyWlLk6GJQsqaUBKTNV-1">
          <mxGeometry x="-10" y="910" width="100" height="60" as="geometry" />
        </mxCell>
        <mxCell id="T1c-80b6OHfldNlM--Q7-30" value="Battling&amp;nbsp;" style="ellipse;whiteSpace=wrap;html=1;" vertex="1" parent="WIyWlLk6GJQsqaUBKTNV-1">
          <mxGeometry x="155" y="910" width="120" height="80" as="geometry" />
        </mxCell>
        <mxCell id="T1c-80b6OHfldNlM--Q7-31" value="" style="endArrow=classic;html=1;rounded=0;exitX=0;exitY=1;exitDx=0;exitDy=0;" edge="1" parent="WIyWlLk6GJQsqaUBKTNV-1" source="T1c-80b6OHfldNlM--Q7-30" target="T1c-80b6OHfldNlM--Q7-32">
          <mxGeometry width="50" height="50" relative="1" as="geometry">
            <mxPoint x="150" y="1050" as="sourcePoint" />
            <mxPoint x="150" y="1020" as="targetPoint" />
          </mxGeometry>
        </mxCell>
        <mxCell id="T1c-80b6OHfldNlM--Q7-32" value="StatChanges" style="ellipse;whiteSpace=wrap;html=1;" vertex="1" parent="WIyWlLk6GJQsqaUBKTNV-1">
          <mxGeometry x="90" y="1010" width="70" height="50" as="geometry" />
        </mxCell>
        <mxCell id="T1c-80b6OHfldNlM--Q7-33" value="" style="endArrow=classic;html=1;rounded=0;exitX=1;exitY=1;exitDx=0;exitDy=0;" edge="1" parent="WIyWlLk6GJQsqaUBKTNV-1" source="T1c-80b6OHfldNlM--Q7-30" target="T1c-80b6OHfldNlM--Q7-34">
          <mxGeometry width="50" height="50" relative="1" as="geometry">
            <mxPoint x="275" y="1070" as="sourcePoint" />
            <mxPoint x="290" y="1030" as="targetPoint" />
          </mxGeometry>
        </mxCell>
        <mxCell id="T1c-80b6OHfldNlM--Q7-34" value="People met&amp;nbsp;" style="ellipse;whiteSpace=wrap;html=1;" vertex="1" parent="WIyWlLk6GJQsqaUBKTNV-1">
          <mxGeometry x="230" y="1010" width="90" height="60" as="geometry" />
        </mxCell>
        <mxCell id="T1c-80b6OHfldNlM--Q7-35" value="Exam 1" style="shape=hexagon;perimeter=hexagonPerimeter2;whiteSpace=wrap;html=1;fixedSize=1;" vertex="1" parent="WIyWlLk6GJQsqaUBKTNV-1">
          <mxGeometry x="350" y="160" width="141" height="70" as="geometry" />
        </mxCell>
        <mxCell id="T1c-80b6OHfldNlM--Q7-36" value="" style="endArrow=classic;html=1;rounded=0;exitX=0.184;exitY=1.043;exitDx=0;exitDy=0;exitPerimeter=0;" edge="1" parent="WIyWlLk6GJQsqaUBKTNV-1" source="T1c-80b6OHfldNlM--Q7-35">
          <mxGeometry width="50" height="50" relative="1" as="geometry">
            <mxPoint x="390" y="340" as="sourcePoint" />
            <mxPoint x="376" y="320" as="targetPoint" />
            <Array as="points">
              <mxPoint x="376" y="310" />
            </Array>
          </mxGeometry>
        </mxCell>
        <mxCell id="T1c-80b6OHfldNlM--Q7-37" value="One question For each Major exam&amp;nbsp;&lt;br&gt;ie Physics Calc History" style="rounded=1;whiteSpace=wrap;html=1;" vertex="1" parent="WIyWlLk6GJQsqaUBKTNV-1">
          <mxGeometry x="340" y="320" width="120" height="60" as="geometry" />
        </mxCell>
      </root>
    </mxGraphModel>
  </diagram>
</mxfile>
